Source: Futurama.S06E08.720p.HDTV.x264-ORENJI 

I will do this show and other stuff while OOO is gone. 

Encoded for PSP, iPod, and Zune.

Enjoy and please help seed! (^_^) 

Video Specs:

Format                           : MPEG-4
Codec ID                         : M4V 
File size                        : 72.6 MiB
Duration                         : 21mn 0s
Overall bit rate                 : 483 Kbps
Movie name                       : That Darn Katz
Encoded date                     : 2010
Writing application              : Lavf52.33.0

Video
ID                               : 1
Format                           : AVC
Format/Info                      : Advanced Video Codec
Format profile                   : Baseline@L1.3
Format settings, CABAC           : No
Format settings, ReFrames        : 1 frame
Codec ID                         : avc1
Codec ID/Info                    : Advanced Video Coding
Duration                         : 21mn 0s
Bit rate mode                    : Variable
Bit rate                         : 350 Kbps
Width                            : 320 pixels
Height                           : 240 pixels
Display aspect ratio             : 4:3
Frame rate mode                  : Constant
Frame rate                       : 29.970 fps
Color space                      : YUV
Chroma subsampling               : 4:2:0
Bit depth                        : 8 bits
Scan type                        : Progressive
Bits/(Pixel*Frame)               : 0.152
Stream size                      : 52.6 MiB (73%)

Audio
ID                               : 2
Format                           : AAC
Format/Info                      : Advanced Audio Codec
Format version                   : Version 4
Format profile                   : LC
Format settings, SBR             : No
Codec ID                         : 40
Duration                         : 21mn 0s
Bit rate mode                    : Variable
Bit rate                         : 128 Kbps
Channel(s)                       : 2 channels
Channel positions                : Front: L R
Sampling rate                    : 48.0 KHz
Stream size                      : 19.2 MiB (26%)

